#!OML:ASF I:\salsa\salsa 7_09\Patient 1\Session 1\dancerfemale.ASF
:FULLY-SPECIFIED
:DEGREES
1645
root -14.908 15.9625 -2.88708 462.245 457.902 456.036
lowerback 7.85862 11.2643 7.48437
upperback -8.40147 16.5564 0.0722715
thorax -11.4595 7.42536 -6.53911
lowerneck 9.2276 -13.6757 -12.9005
upperneck 1.8068 -19.4118 11.7586
head 1.47963 -9.92258 5.3848
rclavicle -2.81032e-014 2.38542e-015
rhumerus 5.80691 -20.5787 -68.1625
rradius 46.0321
rwrist 8.16142
rhand 9.49249 44.0851
rfingers 7.12502
rthumb 34.6448 17.4468
lclavicle -2.81032e-014 2.38542e-015
lhumerus -60.1737 16.1267 49.5313
lradius 108.586
lwrist -16.5326
lhand -5.8534 32.5429
lfingers 7.12502
lthumb 19.9733 61.5365
rfemur 2.86801 -15.4864 31.2376
rtibia 23.0157
rfoot -8.80819 13.7708
rtoes -30.5322
lfemur -41.5473 8.55459 -19.1928
ltibia 50.2344
lfoot -21.4682 3.98292
ltoes 7.52925
1646
root -14.7646 15.9858 -2.90175 455.891 457.338 449.245
lowerback 7.24034 11.1093 7.57874
upperback -8.59408 16.2866 -0.28068
thorax -11.2148 7.30137 -6.79291
lowerneck 8.95835 -13.9138 -12.82
upperneck 2.29908 -19.7164 11.4582
head 1.66804 -10.0608 5.22687
rclavicle -5.47155e-014 -1.45113e-014
rhumerus 4.82856 -21.366 -67.1315
rradius 46.2026
rwrist 8.13244
rhand 9.87635 44.1446
rfingers 7.12502
rthumb 35.0091 17.5906
lclavicle -5.47155e-014 -1.45113e-014
lhumerus -60.235 16.5388 48.1391
lradius 108.697
lwrist -16.9369
lhand -5.91293 32.447
lfingers 7.12502
lthumb 19.9161 61.4464
rfemur 3.70763 -14.0347 31.2115
rtibia 21.3183
rfoot -7.83176 11.3976
rtoes -30.8232
lfemur -41.136 7.29886 -19.9015
ltibia 48.0456
lfoot -21.6417 1.30262
ltoes 2.94615
1647
root -14.6002 15.9988 -2.91266 446.21 456.981 439.351
lowerback 6.69334 10.8836 7.71299
upperback -8.68056 15.9281 -0.554064
thorax -10.9214 7.13753 -6.98353
lowerneck 8.89354 -14.0549 -12.8912
upperneck 2.40637 -19.9125 11.4532
head 1.74054 -10.1567 5.21093
rclavicle 1.40864e-013 5.64548e-014
rhumerus 3.70548 -22.1468 -65.9203
rradius 46.4056
rwrist 8.10136
rhand 9.93391 44.5097
rfingers 7.12502
rthumb 35.0637 17.9685
lclavicle 1.40864e-013 5.64548e-014
lhumerus -60.1715 16.7565 47.027
lradius 108.685
lwrist -17.3681
lhand -5.82857 32.2819
lfingers 7.12502
lthumb 19.9971 61.273
rfemur 4.44427 -12.3704 31.3649
rtibia 20.3542
rfoot -7.55867 9.00304
rtoes -32.9451
lfemur -40.4757 5.98951 -20.577
ltibia 46.1762
lfoot -21.4974 -0.686796
ltoes 0.559024
1648
root -14.41 15.9971 -2.91707 435.398 456.901 428.643
lowerback 6.31879 10.6856 7.87825
upperback -8.68408 15.6172 -0.799776
thorax -10.6337 6.99131 -7.19803
lowerneck 8.99909 -14.2393 -12.9475
upperneck 2.38897 -20.1755 11.4853
head 1.7602 -10.2912 5.21822
rclavicle -4.11981e-014 -3.61788e-014
rhumerus 2.39088 -22.9586 -64.5141
rradius 46.6423
rwrist 8.03591
rhand 9.71373 44.5369
rfingers 7.12502
rthumb 34.8548 17.9471
lclavicle -4.11981e-014 -3.61788e-014
lhumerus -59.9014 16.8243 46.5188
lradius 108.781
lwrist -17.2933
lhand -6.78059 32.9906
lfingers 7.12502
lthumb 19.0818 62.0745
rfemur 4.88097 -10.9959 31.4974
rtibia 20.7569
rfoot -7.8714 6.93108
rtoes -35.1105
lfemur -39.3 4.76746 -21.2036
ltibia 44.7345
lfoot -21.403 -1.73239
ltoes -0.318797
1649
root -14.2021 15.9834 -2.92529 423.055 456.751 416.503
lowerback 5.96547 10.4869 7.64577
upperback -8.65281 15.2513 -1.10243
thorax -10.4111 6.84116 -7.28181
lowerneck 9.13218 -14.4635 -12.9197
upperneck 2.43464 -20.4846 11.3526
head 1.77485 -10.4469 5.16544
rclavicle 9.93426e-014 5.28767e-014
rhumerus 1.18757 -23.6177 -62.954
rradius 46.5519
rwrist 7.84571
rhand 9.74043 44.2774
rfingers 7.12502
rthumb 34.8801 17.6934
lclavicle 9.93426e-014 5.28767e-014
lhumerus -59.5904 17.087 46.1602
lradius 108.816
lwrist -17.1978
lhand -6.87669 32.9312
lfingers 7.12502
lthumb 18.9894 62.0243
rfemur 4.91102 -10.4792 30.9475
rtibia 22.2818
rfoot -7.01887 5.56858
rtoes -36.7486
lfemur -37.5018 3.3463 -22.1712
ltibia 43.4542
lfoot -21.5973 -1.43491
ltoes 4.25548
1650
root -13.983 15.9766 -2.94077 409.243 456.808 402.825
lowerback 5.50863 10.235 7.16443
upperback -8.60539 14.7848 -1.37926
thorax -10.192 6.66363 -7.18977
lowerneck 9.32349 -14.6149 -12.9881
upperneck 2.40493 -20.7077 11.1953
head 1.75416 -10.5629 5.13182
rclavicle 6.3462e-014 1.88845e-014
rhumerus 0.157177 -23.8461 -61.176
rradius 46.114
rwrist 7.45246
rhand 9.70117 44.0034
rfingers 7.12502
rthumb 34.8429 17.4108
lclavicle 6.3462e-014 1.88845e-014
lhumerus -59.4113 17.4722 46.0361
lradius 108.853
lwrist -16.8423
lhand -6.75749 32.7285
lfingers 7.12502
lthumb 19.104 61.8102
rfemur 4.29976 -10.9311 29.8513
rtibia 24.8874
rfoot -5.65964 4.99191
rtoes -37.3835
lfemur -35.5788 1.6522 -23.2155
ltibia 42.254
lfoot -21.5014 -0.125948
ltoes 9.51996
